HIERARCHY
ROOT mixamorig:Hips
{
	OFFSET -0.000008 104.274872 1.554316
	CHANNELS 6 Xposition Yposition Zposition Xrotation Yrotation Zrotation
	JOINT mixamorig:Spine
	{
		OFFSET -0.000005 10.181595 0.131519
		CHANNELS 6 Xposition Yposition Zposition Xrotation Yrotation Zrotation
		JOINT mixamorig:Spine1
		{
			OFFSET -0.000000 9.893959 -1.470707
			CHANNELS 6 Xposition Yposition Zposition Xrotation Yrotation Zrotation
			JOINT mixamorig:Spine2
			{
				OFFSET -0.000000 9.220757 -1.370641
				CHANNELS 6 Xposition Yposition Zposition Xrotation Yrotation Zrotation
				JOINT mixamorig:Neck
				{
					OFFSET 0.000001 16.740417 -2.049036
					CHANNELS 6 Xposition Yposition Zposition Xrotation Yrotation Zrotation
					JOINT mixamorig:Head
					{
						OFFSET 0.000000 9.617874 1.685006
						CHANNELS 6 Xposition Yposition Zposition Xrotation Yrotation Zrotation
						JOINT mixamorig:HeadTop_End
						{
							OFFSET 0.000002 22.037354 7.501101
							CHANNELS 6 Xposition Yposition Zposition Xrotation Yrotation Zrotation
							End Site
							{
								OFFSET 0.000168 2310.654297 -282.823242
							}
						}
					}
				}
				JOINT mixamorig:RightShoulder
				{
					OFFSET -4.569970 11.014908 -2.160885
					CHANNELS 6 Xposition Yposition Zposition Xrotation Yrotation Zrotation
					JOINT mixamorig:RightArm
					{
						OFFSET -10.592851 -0.524811 -2.232101
						CHANNELS 6 Xposition Yposition Zposition Xrotation Yrotation Zrotation
						JOINT mixamorig:RightForeArm
						{
							OFFSET -27.841511 0.000031 -0.000004
							CHANNELS 6 Xposition Yposition Zposition Xrotation Yrotation Zrotation
							JOINT mixamorig:RightHand
							{
								OFFSET -28.328831 -0.000015 0.000015
								CHANNELS 6 Xposition Yposition Zposition Xrotation Yrotation Zrotation
								JOINT mixamorig:RightHandThumb1
								{
									OFFSET -2.464806 -1.573990 2.681852
									CHANNELS 6 Xposition Yposition Zposition Xrotation Yrotation Zrotation
									JOINT mixamorig:RightHandThumb2
									{
										OFFSET -3.215179 -1.872803 1.924282
										CHANNELS 6 Xposition Yposition Zposition Xrotation Yrotation Zrotation
										JOINT mixamorig:RightHandThumb3
										{
											OFFSET -2.654831 -1.527969 1.512609
											CHANNELS 6 Xposition Yposition Zposition Xrotation Yrotation Zrotation
											JOINT mixamorig:RightHandThumb4
											{
												OFFSET -2.018814 -1.152008 1.108052
												CHANNELS 6 Xposition Yposition Zposition Xrotation Yrotation Zrotation
												End Site
												{
													OFFSET -188.809540 -114.533607 132.431396
												}
											}
										}
									}
								}
								JOINT mixamorig:RightHandIndex1
								{
									OFFSET -9.108284 -0.517868 2.259835
									CHANNELS 6 Xposition Yposition Zposition Xrotation Yrotation Zrotation
									JOINT mixamorig:RightHandIndex2
									{
										OFFSET -3.699989 0.000000 0.001215
										CHANNELS 6 Xposition Yposition Zposition Xrotation Yrotation Zrotation
										JOINT mixamorig:RightHandIndex3
										{
											OFFSET -2.850006 0.000031 -0.000522
											CHANNELS 6 Xposition Yposition Zposition Xrotation Yrotation Zrotation
											JOINT mixamorig:RightHandIndex4
											{
												OFFSET -2.772186 -0.000015 -0.000020
												CHANNELS 6 Xposition Yposition Zposition Xrotation Yrotation Zrotation
												End Site
												{
													OFFSET -277.218445 0.000000 -0.050231
												}
											}
										}
									}
								}
								JOINT mixamorig:RightHandMiddle1
								{
									OFFSET -9.532516 -0.000031 -0.000023
									CHANNELS 6 Xposition Yposition Zposition Xrotation Yrotation Zrotation
									JOINT mixamorig:RightHandMiddle2
									{
										OFFSET -3.700005 -0.000015 0.003713
										CHANNELS 6 Xposition Yposition Zposition Xrotation Yrotation Zrotation
										JOINT mixamorig:RightHandMiddle3
										{
											OFFSET -2.949974 0.000015 -0.002054
											CHANNELS 6 Xposition Yposition Zposition Xrotation Yrotation Zrotation
											JOINT mixamorig:RightHandMiddle4
											{
												OFFSET -2.946640 0.000000 -0.000156
												CHANNELS 6 Xposition Yposition Zposition Xrotation Yrotation Zrotation
												End Site
												{
													OFFSET -294.664337 0.000000 -0.113670
												}
											}
										}
									}
								}
								JOINT mixamorig:RightHandRing1
								{
									OFFSET -9.103600 -0.043076 -1.865134
									CHANNELS 6 Xposition Yposition Zposition Xrotation Yrotation Zrotation
									JOINT mixamorig:RightHandRing2
									{
										OFFSET -3.379288 0.000000 -0.001055
										CHANNELS 6 Xposition Yposition Zposition Xrotation Yrotation Zrotation
										JOINT mixamorig:RightHandRing3
										{
											OFFSET -2.889687 -0.000015 0.000379
											CHANNELS 6 Xposition Yposition Zposition Xrotation Yrotation Zrotation
											JOINT mixamorig:RightHandRing4
											{
												OFFSET -2.638809 -0.000015 0.000941
												CHANNELS 6 Xposition Yposition Zposition Xrotation Yrotation Zrotation
												End Site
												{
													OFFSET -263.880371 0.000000 0.516020
												}
											}
										}
									}
								}
								JOINT mixamorig:RightHandPinky1
								{
									OFFSET -8.076683 -0.486710 -3.806280
									CHANNELS 6 Xposition Yposition Zposition Xrotation Yrotation Zrotation
									JOINT mixamorig:RightHandPinky2
									{
										OFFSET -3.600014 -0.000015 -0.003747
										CHANNELS 6 Xposition Yposition Zposition Xrotation Yrotation Zrotation
										JOINT mixamorig:RightHandPinky3
										{
											OFFSET -2.099983 0.000000 -0.005739
											CHANNELS 6 Xposition Yposition Zposition Xrotation Yrotation Zrotation
											JOINT mixamorig:RightHandPinky4
											{
												OFFSET -2.115768 -0.000031 -0.003680
												CHANNELS 6 Xposition Yposition Zposition Xrotation Yrotation Zrotation
												End Site
												{
													OFFSET -211.577087 0.000000 -0.350686
												}
											}
										}
									}
								}
							}
						}
					}
				}
				JOINT mixamorig:LeftShoulder
				{
					OFFSET 4.570447 11.014725 -2.160855
					CHANNELS 6 Xposition Yposition Zposition Xrotation Yrotation Zrotation
					JOINT mixamorig:LeftArm
					{
						OFFSET 10.592371 -0.524597 -2.232119
						CHANNELS 6 Xposition Yposition Zposition Xrotation Yrotation Zrotation
						JOINT mixamorig:LeftForeArm
						{
							OFFSET 27.841532 -0.000031 0.000026
							CHANNELS 6 Xposition Yposition Zposition Xrotation Yrotation Zrotation
							JOINT mixamorig:LeftHand
							{
								OFFSET 28.328846 -0.000061 0.000022
								CHANNELS 6 Xposition Yposition Zposition Xrotation Yrotation Zrotation
								JOINT mixamorig:LeftHandThumb1
								{
									OFFSET 2.466141 -1.576172 2.681732
									CHANNELS 6 Xposition Yposition Zposition Xrotation Yrotation Zrotation
									JOINT mixamorig:LeftHandThumb2
									{
										OFFSET 3.217812 -1.872070 1.916482
										CHANNELS 6 Xposition Yposition Zposition Xrotation Yrotation Zrotation
										JOINT mixamorig:LeftHandThumb3
										{
											OFFSET 2.656029 -1.528778 1.514513
											CHANNELS 6 Xposition Yposition Zposition Xrotation Yrotation Zrotation
											JOINT mixamorig:LeftHandThumb4
											{
												OFFSET 2.020889 -1.154053 1.115139
												CHANNELS 6 Xposition Yposition Zposition Xrotation Yrotation Zrotation
												End Site
												{
													OFFSET 190.885437 -115.081749 130.048782
												}
											}
										}
									}
								}
								JOINT mixamorig:LeftHandIndex1
								{
									OFFSET 9.109314 -0.518021 2.259871
									CHANNELS 6 Xposition Yposition Zposition Xrotation Yrotation Zrotation
									JOINT mixamorig:LeftHandIndex2
									{
										OFFSET 3.699989 0.000000 -0.000322
										CHANNELS 6 Xposition Yposition Zposition Xrotation Yrotation Zrotation
										JOINT mixamorig:LeftHandIndex3
										{
											OFFSET 2.850006 0.000000 0.000352
											CHANNELS 6 Xposition Yposition Zposition Xrotation Yrotation Zrotation
											JOINT mixamorig:LeftHandIndex4
											{
												OFFSET 2.774864 -0.000031 -0.000027
												CHANNELS 6 Xposition Yposition Zposition Xrotation Yrotation Zrotation
												End Site
												{
													OFFSET 277.486267 0.000000 -0.009857
												}
											}
										}
									}
								}
								JOINT mixamorig:LeftHandMiddle1
								{
									OFFSET 9.533394 0.000061 0.000044
									CHANNELS 6 Xposition Yposition Zposition Xrotation Yrotation Zrotation
									JOINT mixamorig:LeftHandMiddle2
									{
										OFFSET 3.699989 -0.000015 -0.000231
										CHANNELS 6 Xposition Yposition Zposition Xrotation Yrotation Zrotation
										JOINT mixamorig:LeftHandMiddle3
										{
											OFFSET 2.949997 -0.000015 -0.000059
											CHANNELS 6 Xposition Yposition Zposition Xrotation Yrotation Zrotation
											JOINT mixamorig:LeftHandMiddle4
											{
												OFFSET 2.952896 0.000031 0.000063
												CHANNELS 6 Xposition Yposition Zposition Xrotation Yrotation Zrotation
												End Site
												{
													OFFSET 295.289337 0.000000 0.022810
												}
											}
										}
									}
								}
								JOINT mixamorig:LeftHandRing1
								{
									OFFSET 9.104523 -0.042999 -1.865074
									CHANNELS 6 Xposition Yposition Zposition Xrotation Yrotation Zrotation
									JOINT mixamorig:LeftHandRing2
									{
										OFFSET 3.150009 -0.000031 0.000043
										CHANNELS 6 Xposition Yposition Zposition Xrotation Yrotation Zrotation
										JOINT mixamorig:LeftHandRing3
										{
											OFFSET 2.949982 -0.000015 0.000040
											CHANNELS 6 Xposition Yposition Zposition Xrotation Yrotation Zrotation
											JOINT mixamorig:LeftHandRing4
											{
												OFFSET 2.644348 0.000000 0.000057
												CHANNELS 6 Xposition Yposition Zposition Xrotation Yrotation Zrotation
												End Site
												{
													OFFSET 264.434631 0.000000 0.012105
												}
											}
										}
									}
								}
								JOINT mixamorig:LeftHandPinky1
								{
									OFFSET 8.077789 -0.486847 -3.806259
									CHANNELS 6 Xposition Yposition Zposition Xrotation Yrotation Zrotation
									JOINT mixamorig:LeftHandPinky2
									{
										OFFSET 3.599953 0.000031 0.014727
										CHANNELS 6 Xposition Yposition Zposition Xrotation Yrotation Zrotation
										JOINT mixamorig:LeftHandPinky3
										{
											OFFSET 2.100021 0.000015 0.007705
											CHANNELS 6 Xposition Yposition Zposition Xrotation Yrotation Zrotation
											JOINT mixamorig:LeftHandPinky4
											{
												OFFSET 2.125504 0.000031 0.007517
												CHANNELS 6 Xposition Yposition Zposition Xrotation Yrotation Zrotation
												End Site
												{
													OFFSET 212.550781 0.000000 0.625752
												}
											}
										}
									}
								}
							}
						}
					}
				}
			}
		}
	}
	JOINT mixamorig:RightUpLeg
	{
		OFFSET -8.207787 -6.751648 -1.599560
		CHANNELS 6 Xposition Yposition Zposition Xrotation Yrotation Zrotation
		JOINT mixamorig:RightLeg
		{
			OFFSET -0.000002 -44.370117 0.345942
			CHANNELS 6 Xposition Yposition Zposition Xrotation Yrotation Zrotation
			JOINT mixamorig:RightFoot
			{
				OFFSET 0.000003 -44.423679 -3.043532
				CHANNELS 6 Xposition Yposition Zposition Xrotation Yrotation Zrotation
				JOINT mixamorig:RightToeBase
				{
					OFFSET -0.000002 -8.728671 10.710558
					CHANNELS 6 Xposition Yposition Zposition Xrotation Yrotation Zrotation
					JOINT mixamorig:RightToe_End
					{
						OFFSET -0.000001 -0.000679 9.278119
						CHANNELS 6 Xposition Yposition Zposition Xrotation Yrotation Zrotation
						End Site
						{
							OFFSET 0.000000 -0.067690 927.812134
						}
					}
				}
			}
		}
	}
	JOINT mixamorig:LeftUpLeg
	{
		OFFSET 8.207793 -6.751686 -1.599556
		CHANNELS 6 Xposition Yposition Zposition Xrotation Yrotation Zrotation
		JOINT mixamorig:LeftLeg
		{
			OFFSET -0.000004 -44.370014 0.346954
			CHANNELS 6 Xposition Yposition Zposition Xrotation Yrotation Zrotation
			JOINT mixamorig:LeftFoot
			{
				OFFSET -0.000001 -44.423672 -3.044401
				CHANNELS 6 Xposition Yposition Zposition Xrotation Yrotation Zrotation
				JOINT mixamorig:LeftToeBase
				{
					OFFSET -0.000002 -8.728669 10.710558
					CHANNELS 6 Xposition Yposition Zposition Xrotation Yrotation Zrotation
					JOINT mixamorig:LeftToe_End
					{
						OFFSET -0.000003 -0.000679 9.278133
						CHANNELS 6 Xposition Yposition Zposition Xrotation Yrotation Zrotation
						End Site
						{
							OFFSET 0.000000 -0.068021 927.813477
						}
					}
				}
			}
		}
	}
}
MOTION
Frames: 3
Frame Time: 0.033333
0.000006 104.270477 1.554256 0.000010 0.000003 -0.000113 -0.000005 10.181587 0.131522 0.000001 -0.000003 0.000084 -0.000000 9.893967 -1.470711 0.000001 0.000000 -0.000000 -0.000000 9.220802 -1.370642 0.000000 -0.000000 -0.000000 0.000001 16.740433 -2.049030 0.000000 -0.000000 -0.000000 0.000000 9.617859 1.685014 0.000000 0.000000 0.000000 0.000002 22.037384 7.501101 0.000000 -0.000000 0.000000 -4.569968 11.014880 -2.160881 0.000008 0.000001 -0.000038 -10.592784 -0.524846 -2.231758 80.327546 62.772498 -54.487093 -27.841442 0.000005 0.000625 10.677012 111.549386 -15.643529 -28.328838 0.000009 0.000015 -0.000319 -0.000043 0.000008 -2.464453 -1.573660 2.682189 -59.917978 -173.285424 -47.152317 -3.214698 -1.872843 1.924680 162.112464 -50.829609 210.125961 -2.654434 -1.528042 1.513090 164.500298 -42.208370 215.557246 -2.018842 -1.151996 1.108072 -0.000004 -0.000003 0.000002 -9.108300 -0.517875 2.260389 165.715689 14.470715 -91.048887 -3.699890 -0.000037 0.001800 168.269688 19.063372 -116.943398 -2.849863 0.000002 0.000070 174.324473 16.965655 -143.224614 -2.772160 0.000001 -0.000007 -0.000000 -0.000001 0.000002 -9.532506 -0.000028 0.000520 166.272117 11.436171 -80.545696 -3.699914 -0.000033 0.004274 168.063566 15.882329 -105.660800 -2.949867 -0.000061 -0.001482 175.238625 12.351826 -137.898418 -2.946626 0.000013 -0.000148 -0.000003 0.000001 0.000000 -9.103551 -0.043116 -1.864578 171.423036 10.688121 -102.146743 -3.379234 -0.000037 -0.000479 170.922356 7.655501 -80.454144 -2.889568 -0.000096 0.000950 175.762979 5.437255 -105.112841 -2.638822 -0.000003 0.000937 0.000007 0.000001 0.000002 -8.076425 -0.486634 -3.805711 181.798817 9.631228 -199.983813 -3.599670 -0.000072 -0.003176 180.351473 2.204974 -182.315330 -2.099935 -0.000109 -0.005174 177.755181 1.755161 -64.897295 -2.115774 -0.000056 -0.003676 -0.000000 0.000002 -0.000004 4.570446 11.014691 -2.160851 -0.000018 0.000010 -0.000021 10.592533 -0.524572 -2.232376 67.706975 -73.936873 53.578599 27.841696 -0.000080 -0.000080 76.521328 -110.565525 97.396585 28.328831 -0.000015 0.000039 0.000017 -0.000089 -0.000000 2.466140 -1.576187 2.681818 150.365809 164.518944 -174.111030 3.217824 -1.871969 1.916547 305.186212 15.981034 15.827205 2.656068 -1.528768 1.514614 279.447792 28.635708 29.906345 2.020906 -1.154051 1.115146 0.000001 0.000005 0.000006 9.109294 -0.517906 2.260101 103.702912 -168.065288 170.618699 3.699975 0.000171 -0.000041 -95.276979 -8.480636 -9.309579 2.849974 0.000227 0.000601 -102.850566 -5.178039 -6.488528 2.774894 -0.000032 -0.000046 0.000001 0.000000 0.000000 9.533385 0.000201 0.000301 -88.126939 -10.186817 -9.855175 3.699995 0.000247 -0.000002 -114.296618 -3.738776 -5.783896 2.950014 0.000267 0.000173 235.408699 -1.980507 -3.775107 2.952868 -0.000029 0.000066 0.000000 -0.000001 -0.000001 9.104505 -0.042827 -1.864822 -102.278927 -7.456053 -9.248073 3.149986 0.000295 0.000272 -115.791200 -3.540119 -5.641968 2.949970 0.000261 0.000261 -118.479111 -2.988542 -5.021451 2.644323 0.000030 0.000056 -0.000001 0.000000 0.000001 8.077751 -0.486594 -3.806013 -118.947649 -7.583463 -13.486063 3.599949 0.000324 0.014972 -120.949400 -2.014345 -4.265177 2.100006 0.000261 0.007923 -117.446237 0.690613 0.464859 2.125491 -0.000018 0.007516 0.000000 -0.000001 0.000002 -8.207786 -6.751667 -1.599560 -0.077001 -0.000003 0.000080 -0.000002 -44.370110 0.345938 0.153719 -0.000000 -0.000000 0.000000 -44.423679 -3.043532 -0.076700 0.000000 -0.000002 -0.000006 -8.728667 10.710559 -0.000009 -0.000000 -0.000000 -0.000001 -0.000679 9.278123 0.000000 -0.000000 -0.000000 8.207792 -6.751710 -1.599556 -0.074518 -0.000003 0.000081 -0.000002 -44.370014 0.346960 0.148822 0.000002 0.000000 -0.000001 -44.423664 -3.044403 -0.074314 0.000000 -0.000002 -0.000004 -8.728671 10.710558 0.000007 -0.000000 -0.000000 0.000000 -0.000680 9.278137 -0.000000 0.000000 -0.000001 
0.000006 104.270477 1.554256 0.000010 0.000003 -0.000113 -0.000005 10.181587 0.131522 0.000001 -0.000003 0.000084 -0.000000 9.893967 -1.470711 0.000001 0.000000 -0.000000 -0.000000 9.220802 -1.370642 0.000000 -0.000000 -0.000000 0.000001 16.740433 -2.049030 0.000000 -0.000000 -0.000000 0.000000 9.617859 1.685014 0.000000 0.000000 0.000000 0.000002 22.037384 7.501101 0.000000 -0.000000 0.000000 -4.569968 11.014880 -2.160881 0.000008 0.000001 -0.000038 -10.592792 -0.524839 -2.231757 80.251021 61.872054 -53.601190 -27.841431 0.000003 0.000617 10.627348 111.752202 -15.629927 -28.328836 0.000018 0.000029 -0.000319 -0.000046 0.000007 -2.464442 -1.573669 2.682200 -60.665740 -170.908887 -47.427573 -3.214698 -1.872831 1.924683 160.074677 -51.183925 207.071077 -2.654433 -1.528042 1.513092 163.366268 -42.048598 213.913752 -2.018830 -1.152012 1.108060 -0.000005 -0.000004 0.000000 -9.108313 -0.517869 2.260388 164.999024 13.884339 -85.821914 -3.699910 -0.000036 0.001803 167.991016 18.608688 -114.454614 -2.849886 -0.000005 0.000056 173.300218 16.896095 -136.974622 -2.772171 0.000002 -0.000044 -0.000000 -0.000000 0.000000 -9.532514 -0.000025 0.000530 166.738592 11.088028 -80.793850 -3.699942 -0.000033 0.004276 168.017599 16.073474 -106.120130 -2.949884 -0.000059 -0.001490 175.202070 12.610656 -138.405451 -2.946640 0.000019 -0.000154 0.000000 0.000002 0.000003 -9.103512 -0.043115 -1.864565 172.145902 10.551599 -106.310679 -3.379219 -0.000056 -0.000481 171.046665 8.347532 -86.172467 -2.889548 -0.000085 0.000947 175.626430 5.934543 -108.130801 -2.638805 0.000014 0.000940 0.000002 0.000000 -0.000002 -8.076401 -0.486594 -3.805704 182.616924 9.772830 -208.950650 -3.599653 0.000072 -0.003178 181.098955 2.780623 -215.317629 -2.099823 -0.000142 -0.005178 178.303318 2.123077 -90.783630 -2.115779 -0.000056 -0.003670 0.000001 0.000001 -0.000005 4.570446 11.014691 -2.160851 -0.000018 0.000010 -0.000021 10.592532 -0.524550 -2.232377 67.624952 -73.900850 53.477151 27.841696 -0.000084 -0.000073 76.203860 -110.583754 97.091836 28.328833 -0.000014 0.000030 0.000018 -0.000090 -0.000000 2.466138 -1.576186 2.681828 150.499831 166.272896 -173.896534 3.217840 -1.871976 1.916535 303.859653 15.393925 16.296297 2.656054 -1.528756 1.514610 277.383599 27.595506 30.683385 2.020879 -1.154062 1.115146 -0.000002 0.000001 0.000004 9.109285 -0.517895 2.260109 101.187675 -167.635259 169.834689 3.699974 0.000187 -0.000094 -97.358193 -9.645275 -10.976400 2.849983 0.000228 0.000578 -105.511178 -6.289073 -8.264915 2.774889 -0.000031 -0.000035 0.000002 0.000000 -0.000001 9.533386 0.000216 0.000307 -89.856268 -9.690643 -9.660640 3.699980 0.000237 -0.000005 -113.711592 -4.756138 -7.274904 2.949999 0.000270 0.000162 235.662181 -3.737614 -7.077487 2.952871 -0.000001 0.000059 0.000000 -0.000000 0.000001 9.104504 -0.042813 -1.864830 -100.349372 -7.425661 -8.900748 3.149971 0.000294 0.000281 -115.156825 -4.774529 -7.512944 2.949970 0.000296 0.000268 -120.322648 -4.676598 -8.146134 2.644319 0.000030 0.000057 0.000001 -0.000002 -0.000000 8.077729 -0.486612 -3.806008 -116.985458 -8.354114 -14.213329 3.599938 0.000326 0.014961 -120.299985 -3.029282 -5.960415 2.099995 0.000286 0.007942 -118.842218 -0.322346 -1.222604 2.125499 -0.000015 0.007515 -0.000004 0.000001 -0.000004 -8.207786 -6.751667 -1.599560 -0.077001 -0.000003 0.000080 -0.000002 -44.370110 0.345938 0.153719 -0.000000 -0.000000 0.000000 -44.423679 -3.043532 -0.076700 0.000000 -0.000002 -0.000006 -8.728667 10.710559 -0.000009 -0.000000 -0.000000 -0.000001 -0.000679 9.278123 0.000000 -0.000000 -0.000000 8.207792 -6.751710 -1.599556 -0.074518 -0.000003 0.000081 -0.000002 -44.370014 0.346960 0.148822 0.000002 0.000000 -0.000001 -44.423664 -3.044403 -0.074314 0.000000 -0.000002 -0.000004 -8.728671 10.710558 0.000007 -0.000000 -0.000000 0.000000 -0.000680 9.278137 -0.000000 0.000000 -0.000001 
0.000006 104.270477 1.554256 0.000010 0.000003 -0.000113 -0.000005 10.181587 0.131522 0.000001 -0.000003 0.000084 -0.000000 9.893967 -1.470711 0.000001 0.000000 -0.000000 -0.000000 9.220802 -1.370642 0.000000 -0.000000 -0.000000 0.000001 16.740433 -2.049030 0.000000 -0.000000 -0.000000 0.000000 9.617859 1.685014 0.000000 0.000000 0.000000 0.000002 22.037384 7.501101 0.000000 -0.000000 0.000000 -4.569968 11.014880 -2.160881 0.000008 0.000001 -0.000038 -10.592797 -0.524842 -2.231760 80.257509 59.830483 -51.747562 -27.841431 0.000029 0.000618 10.213151 113.383688 -15.489484 -28.328835 0.000005 0.000028 -0.000317 -0.000045 0.000006 -2.464438 -1.573664 2.682218 -59.631219 -169.257702 -43.357904 -3.214698 -1.872821 1.924705 160.017781 -49.428399 207.779245 -2.654428 -1.528013 1.513098 157.737796 -38.555492 206.775071 -2.018837 -1.152013 1.108066 -0.000003 -0.000002 -0.000003 -9.108290 -0.517860 2.260398 165.154042 14.011185 -86.947912 -3.699898 -0.000069 0.001794 167.474189 18.688972 -112.457255 -2.849891 -0.000003 0.000061 171.838311 16.939409 -128.794172 -2.772164 -0.000000 -0.000019 0.000005 -0.000000 0.000000 -9.532509 -0.000029 0.000538 167.030637 11.169018 -82.489117 -3.699933 -0.000059 0.004284 168.338003 16.126345 -107.789408 -2.949869 -0.000037 -0.001467 174.277918 12.643852 -131.374358 -2.946625 -0.000001 -0.000143 -0.000002 -0.000000 0.000000 -9.103521 -0.043103 -1.864553 172.305906 10.787614 -108.653632 -3.379243 -0.000058 -0.000480 170.883929 8.209501 -84.184684 -2.889606 -0.000084 0.000946 174.609838 5.849570 -95.519813 -2.638834 -0.000013 0.000938 -0.000003 -0.000003 0.000001 -8.076422 -0.486632 -3.805693 181.217240 10.642082 -191.880422 -3.599665 0.000046 -0.003170 181.179784 3.185707 -213.562885 -2.099781 -0.000165 -0.005173 178.638120 2.282284 -106.255525 -2.115765 -0.000053 -0.003678 -0.000001 0.000003 -0.000005 4.570446 11.014691 -2.160851 -0.000018 0.000010 -0.000021 10.592531 -0.524565 -2.232379 67.822447 -72.915473 52.825161 27.841675 -0.000079 -0.000061 76.300241 -112.428404 99.152845 28.328840 -0.000028 0.000022 0.000021 -0.000090 -0.000000 2.466134 -1.576187 2.681802 150.544391 166.086076 -173.941668 3.217843 -1.871974 1.916581 301.226915 17.541522 17.505466 2.656058 -1.528744 1.514613 273.426843 28.892202 33.163939 2.020894 -1.154052 1.115163 -0.000004 0.000006 0.000007 9.109287 -0.517890 2.260096 98.090000 -168.332170 169.871490 3.699978 0.000191 -0.000055 -99.159361 -9.192078 -10.797789 2.849984 0.000253 0.000590 -107.611304 -6.100397 -8.328738 2.774878 -0.000027 -0.000011 0.000001 0.000002 -0.000002 9.533374 0.000227 0.000289 -93.061157 -9.102098 -9.593332 3.699988 0.000246 0.000034 -113.659231 -5.266945 -8.047182 2.949978 0.000268 0.000171 236.062676 -4.473370 -8.395499 2.952862 -0.000031 0.000063 0.000001 -0.000000 0.000001 9.104512 -0.042796 -1.864818 -101.661970 -6.318023 -7.752967 3.149976 0.000280 0.000258 -113.599194 -5.317945 -8.120865 2.949947 0.000277 0.000293 -118.351619 -5.933369 -9.929908 2.644317 0.000015 0.000056 -0.000001 -0.000000 0.000000 8.077741 -0.486583 -3.806023 -117.728255 -6.943946 -12.128346 3.599939 0.000333 0.014980 -120.312976 -2.658656 -5.322701 2.100002 0.000279 0.007931 -119.693847 -0.558060 -1.645906 2.125491 -0.000012 0.007511 -0.000002 -0.000001 0.000002 -8.207786 -6.751667 -1.599560 -0.077001 -0.000003 0.000080 -0.000002 -44.370110 0.345938 0.153719 -0.000000 -0.000000 0.000000 -44.423679 -3.043532 -0.076700 0.000000 -0.000002 -0.000006 -8.728667 10.710559 -0.000009 -0.000000 -0.000000 -0.000001 -0.000679 9.278123 0.000000 -0.000000 -0.000000 8.207792 -6.751710 -1.599556 -0.074518 -0.000003 0.000081 -0.000002 -44.370014 0.346960 0.148822 0.000002 0.000000 -0.000001 -44.423664 -3.044403 -0.074314 0.000000 -0.000002 -0.000004 -8.728671 10.710558 0.000007 -0.000000 -0.000000 0.000000 -0.000680 9.278137 -0.000000 0.000000 -0.000001 
